<svg width="17" height="18" viewBox="0 0 17 18" fill="none" xmlns="http://www.w3.org/2000/svg">
<g clip-path="url(#clip0_2_2512)">
<path d="M2.43834 4.68339L8.31589 0.642578L9.32609 2.84666L12.9077 4.68339L14.4689 7.53033L14.6526 10.8365L13.4587 13.8671L8.04038 16.163L6.66283 15.7038L3.63221 13.8671L1.79548 10.0099L2.43834 4.68339Z" fill="#D9D9D9"/>
<path d="M12.893 11.9815C12.3175 12.8417 11.5148 13.5094 10.5714 13.9123C10.2461 14.0505 9.91046 14.1562 9.56749 14.2263C9.22452 14.2964 8.8732 14.3309 8.51772 14.3309H4.95977V11.8999H6.04811V13.23H8.51668C9.35587 13.23 10.1648 12.9799 10.8581 12.5079C11.5336 12.0453 12.059 11.4017 12.3749 10.6462C12.5927 10.126 12.7043 9.57035 12.7043 8.99895C12.7043 8.15128 12.4572 7.33291 11.9892 6.63384C11.5325 5.95047 10.8956 5.41988 10.1461 5.09965C9.63004 4.87884 9.0817 4.76791 8.51668 4.76791H6.04811V6.11581H4.95977V3.66802H8.51668C9.57479 3.66802 10.5943 3.98407 11.4669 4.57954C12.3186 5.1593 12.9795 5.97244 13.3777 6.92477C13.6529 7.58302 13.7926 8.28 13.7926 9C13.7926 10.0685 13.4809 11.0993 12.8919 11.9815H12.893ZM3.51803 10.1365H7.91517L9.089 7.86244H3.51907V7.0064H10.4869L8.43015 10.9926H3.51907V10.1365H3.51803ZM2.53602 8.57093H6.71112L6.7132 9.42698H2.53707V8.57093H2.53602ZM8.5 0L0.785714 4.5V13.5L8.5 18L16.2143 13.5V4.5L8.5 0Z" fill="#ED1C29"/>
</g>
<defs>
<clipPath id="clip0_2_2512">
<rect width="15.4286" height="18" fill="white" transform="translate(0.785714)"/>
</clipPath>
</defs>
</svg>
